<?xml version="1.0" standalone="no"?>
<!DOCTYPE svg PUBLIC "-//W3C//DTD SVG 20010904//EN"
 "http://www.w3.org/TR/2001/REC-SVG-20010904/DTD/svg10.dtd">
<svg version="1.0" xmlns="http://www.w3.org/2000/svg"
 width="260.000000pt" height="260.000000pt" viewBox="0 0 260.000000 260.000000"
 preserveAspectRatio="xMidYMid meet">
<metadata>
Created by potrace 1.11, written by Peter Selinger 2001-2013
</metadata>
<g transform="translate(0.000000,260.000000) scale(0.100000,-0.100000)"
fill="#000000" stroke="none">
<path d="M1096 2585 c-9 -26 -7 -32 5 -12 6 10 9 21 6 23 -2 3 -7 -2 -11 -11z"/>
<path d="M1604 2475 c0 -71 1 -99 3 -62 2 37 2 96 0 130 -2 34 -3 4 -3 -68z"/>
<path d="M2372 2575 c0 -16 2 -22 5 -12 2 9 2 23 0 30 -3 6 -5 -1 -5 -18z"/>
<path d="M1910 2540 c-6 -11 -8 -20 -6 -20 3 0 10 9 16 20 6 11 8 20 6 20 -3
0 -10 -9 -16 -20z"/>
<path d="M1076 2535 c-9 -26 -7 -32 5 -12 6 10 9 21 6 23 -2 3 -7 -2 -11 -11z"/>
<path d="M2363 2490 c0 -25 2 -35 4 -22 2 12 2 32 0 45 -2 12 -4 2 -4 -23z"/>
<path d="M1052 2475 c-17 -37 -14 -45 4 -12 9 16 14 31 11 33 -2 2 -9 -7 -15
-21z"/>
<path d="M1850 2440 c-6 -11 -8 -20 -6 -20 3 0 10 9 16 20 6 11 8 20 6 20 -3
0 -10 -9 -16 -20z"/>
<path d="M2352 2395 c0 -16 2 -22 5 -12 2 9 2 23 0 30 -3 6 -5 -1 -5 -18z"/>
<path d="M1818 2388 c-8 -13 -24 -41 -37 -63 -26 -47 3 -10 37 47 24 40 24 54
0 16z"/>
<path d="M1481 2384 c0 -11 3 -14 6 -6 3 7 2 16 -1 19 -3 4 -6 -2 -5 -13z"/>
<path d="M2342 2325 c0 -16 2 -22 5 -12 2 9 2 23 0 30 -3 6 -5 -1 -5 -18z"/>
<path d="M981 2279 c-6 -18 -9 -34 -7 -36 2 -2 9 10 15 28 6 18 9 34 7 36 -2
2 -9 -10 -15 -28z"/>
<path d="M1593 2225 c0 -38 2 -53 4 -32 2 20 2 52 0 70 -2 17 -4 1 -4 -38z"/>
<path d="M2331 2274 c0 -11 3 -14 6 -6 3 7 2 16 -1 19 -3 4 -6 -2 -5 -13z"/>
<path d="M1725 2230 c-9 -16 -13 -30 -11 -30 3 0 12 14 21 30 9 17 13 30 11
30 -3 0 -12 -13 -21 -30z"/>
<path d="M2322 2215 c0 -16 2 -22 5 -12 2 9 2 23 0 30 -3 6 -5 -1 -5 -18z"/>
<path d="M1151 2214 c0 -11 3 -14 6 -6 3 7 2 16 -1 19 -3 4 -6 -2 -5 -13z"/>
<path d="M941 2154 c0 -11 3 -14 6 -6 3 7 2 16 -1 19 -3 4 -6 -2 -5 -13z"/>
<path d="M2312 2150 c0 -14 2 -19 5 -12 2 6 2 18 0 25 -3 6 -5 1 -5 -13z"/>
<path d="M1672 2134 c-7 -8 -8 -14 -3 -14 10 0 25 19 20 25 -2 1 -10 -3 -17
-11z"/>
<path d="M2291 2054 c0 -11 3 -14 6 -6 3 7 2 16 -1 19 -3 4 -6 -2 -5 -13z"/>
<path d="M2141 2023 c-10 -26 -10 -27 4 -9 8 11 15 23 15 28 0 15 -7 8 -19
-19z"/>
<path d="M2281 2014 c0 -11 3 -14 6 -6 3 7 2 16 -1 19 -3 4 -6 -2 -5 -13z"/>
<path d="M2272 1970 c0 -14 2 -19 5 -12 2 6 2 18 0 25 -3 6 -5 1 -5 -13z"/>
<path d="M2262 1920 c0 -14 2 -19 5 -12 2 6 2 18 0 25 -3 6 -5 1 -5 -13z"/>
<path d="M2251 1874 c0 -11 3 -14 6 -6 3 7 2 16 -1 19 -3 4 -6 -2 -5 -13z"/>
<path d="M0 1695 c0 -8 13 -21 30 -30 16 -8 33 -23 39 -32 5 -10 13 -14 18
-10 4 5 -3 17 -17 28 -14 11 -35 28 -47 38 -17 15 -23 16 -23 6z"/>
<path d="M2246 1670 c3 -14 15 -36 24 -50 54 -76 212 -193 206 -153 -2 9 -14
23 -27 31 -24 14 -24 14 1 -7 36 -30 11 -26 -41 7 -44 28 -104 94 -148 162
-18 28 -21 30 -15 10z"/>
<path d="M2345 1630 c-3 -6 1 -7 9 -4 18 7 21 14 7 14 -6 0 -13 -4 -16 -10z"/>
<path d="M2 1385 c0 -88 3 -149 7 -136 4 14 12 26 19 29 21 7 15 -82 -8 -111
-19 -24 -29 -107 -12 -107 4 0 52 9 108 19 122 24 250 77 233 97 -8 10 -8 14
0 14 6 0 11 10 11 22 0 21 0 21 15 2 8 -10 15 -14 15 -8 0 7 8 14 18 17 9 3
34 12 55 21 l39 17 -25 -33 c-27 -37 -50 -78 -43 -78 3 0 15 18 27 40 13 22
26 40 30 40 4 0 10 9 14 20 3 11 29 41 56 67 27 25 49 53 49 61 0 23 -60 6
-91 -26 -15 -15 -39 -35 -54 -46 -17 -12 -23 -21 -16 -25 15 -10 -57 -43 -78
-36 -9 3 -24 19 -34 36 -17 31 -17 32 3 51 11 10 25 16 30 13 6 -4 9 -1 8 6
-2 8 25 16 82 25 47 7 110 19 140 28 l55 15 -60 -6 c-33 -2 -84 -9 -114 -14
-30 -5 -71 -9 -92 -9 -20 0 -42 -7 -49 -15 -7 -8 -30 -19 -51 -25 -53 -15 -58
-40 -18 -93 18 -23 29 -39 25 -35 -5 4 -17 3 -27 -3 -26 -13 -43 -2 -84 56
-33 46 -46 83 -25 70 6 -3 15 -3 20 0 9 6 -35 81 -67 113 -7 7 -13 18 -13 24
0 6 -8 3 -19 -6 -18 -16 -20 -16 -37 7 -11 14 -24 33 -31 43 -9 15 -12 -14
-11 -141z"/>
<path d="M1120 1438 c-98 -134 -122 -168 -116 -168 3 0 32 38 65 84 34 47 65
86 69 88 8 3 65 98 59 98 -1 0 -36 -46 -77 -102z"/>
<path d="M1406 1415 c-9 -26 -7 -32 5 -12 6 10 9 21 6 23 -2 3 -7 -2 -11 -11z"/>
<path d="M2270 1408 c0 -8 16 -13 43 -14 l42 -2 -35 13 c-45 17 -50 17 -50 3z"/>
<path d="M1274 1389 c-19 -22 -19 -22 4 -8 12 8 22 17 22 21 0 12 -6 9 -26
-13z"/>
<path d="M1354 1278 c-21 -57 -39 -105 -39 -108 0 -3 -4 -11 -8 -17 -5 -7 -4
-13 2 -13 5 0 13 10 16 23 4 12 23 64 42 116 19 51 32 95 30 97 -2 3 -22 -42
-43 -98z"/>
<path d="M1751 1375 c1 -19 18 -51 18 -35 0 8 -4 22 -9 30 -5 8 -9 11 -9 5z"/>
<path d="M607 1333 c-6 -10 -11 -127 -6 -163 1 -14 5 18 8 70 7 98 6 107 -2
93z"/>
<path d="M1771 1284 c0 -11 3 -14 6 -6 3 7 2 16 -1 19 -3 4 -6 -2 -5 -13z"/>
<path d="M983 1248 c-20 -26 -26 -41 -15 -34 6 4 25 0 42 -9 18 -9 30 -11 30
-5 0 6 -11 16 -25 22 -15 7 -24 17 -21 25 7 16 1 17 -11 1z"/>
<path d="M2296 1206 c4 -11 18 -16 48 -15 39 1 40 1 11 9 -16 4 -38 11 -48 15
-13 6 -16 3 -11 -9z"/>
<path d="M906 1127 c-25 -41 -46 -76 -46 -79 0 -4 8 -4 18 -1 16 4 18 -2 14
-62 -3 -41 0 -71 7 -78 8 -8 11 -3 11 20 0 25 5 32 26 36 14 2 31 -2 39 -9 9
-9 35 -13 77 -12 35 1 73 -2 85 -6 28 -10 26 14 -5 47 -34 36 -29 51 11 32
l32 -16 -25 20 c-14 11 -37 25 -52 32 -26 11 -27 12 -12 40 20 39 11 37 -15
-3 -16 -26 -21 -29 -21 -13 0 14 -3 16 -11 8 -6 -6 -18 -9 -27 -6 -9 4 -13 2
-9 -4 6 -9 -85 12 -102 24 -2 1 4 14 13 28 9 14 23 36 32 50 9 14 14 25 11 25
-3 0 -26 -33 -51 -73z m184 -87 c12 -8 11 -10 -7 -10 -13 0 -23 5 -23 10 0 13
11 13 30 0z"/>
<path d="M1120 1163 c-14 -23 -16 -32 -6 -24 13 11 23 9 61 -12 25 -14 45 -23
45 -19 0 4 -19 18 -41 30 -31 18 -40 28 -36 43 7 28 2 23 -23 -18z"/>
<path d="M1913 1105 c0 -22 2 -30 4 -17 2 12 2 30 0 40 -3 9 -5 -1 -4 -23z"/>
<path d="M1290 1121 c0 -6 5 -13 10 -16 6 -3 10 1 10 9 0 9 -4 16 -10 16 -5 0
-10 -4 -10 -9z"/>
<path d="M805 1082 c-6 -18 -10 -20 -16 -10 -5 7 -9 -30 -9 -91 l0 -104 35 67
c20 36 33 72 29 78 -5 7 -3 8 6 3 10 -6 12 -4 7 9 -4 10 -7 22 -7 28 0 6 -6 8
-14 5 -10 -4 -16 2 -19 16 l-4 22 -8 -23z"/>
<path d="M611 1074 c0 -11 3 -14 6 -6 3 7 2 16 -1 19 -3 4 -6 -2 -5 -13z"/>
<path d="M1266 1064 c-4 -9 -4 -19 -1 -22 3 -3 5 0 5 7 0 7 4 9 10 6 6 -3 7 1
4 9 -8 20 -10 20 -18 0z"/>
<path d="M2240 1043 c0 -6 8 -17 18 -24 16 -13 16 -13 2 6 -8 11 -16 22 -17
24 -2 2 -3 0 -3 -6z"/>
<path d="M622 1020 c0 -14 2 -19 5 -12 2 6 2 18 0 25 -3 6 -5 1 -5 -13z"/>
<path d="M637 1003 c-6 -27 28 -172 42 -183 4 -3 15 -18 25 -35 42 -68 100
-135 132 -154 19 -11 34 -19 34 -17 0 3 -15 40 -34 84 -19 44 -31 84 -28 88 4
4 1 4 -5 0 -8 -4 -13 -2 -13 7 0 21 -34 49 -46 37 -17 -17 -71 45 -79 90 -4
22 -11 40 -15 40 -5 0 -6 16 -3 35 7 41 -2 48 -10 8z"/>
<path d="M1240 998 l-13 -33 -7 30 c-11 49 -24 3 -14 -48 l9 -42 23 59 c12 32
21 61 18 63 -2 2 -9 -11 -16 -29z"/>
<path d="M1616 1015 c-2 -6 34 -10 95 -10 55 0 99 3 99 7 0 11 -189 14 -194 3z"/>
<path d="M1476 952 l-29 -37 34 32 c18 18 31 35 28 37 -3 3 -18 -12 -33 -32z"/>
<path d="M1540 903 c-19 -23 -29 -30 -25 -18 6 18 5 18 -15 -2 -11 -13 -25
-23 -31 -23 -6 0 -7 -4 -4 -10 3 -5 2 -10 -3 -10 -5 0 -9 -7 -9 -14 0 -11 5
-12 16 -6 23 12 120 120 109 120 -4 0 -20 -17 -38 -37z"/>
<path d="M1077 913 c9 -3 5 -16 -12 -44 -14 -21 -21 -39 -15 -39 12 0 50 59
50 78 0 6 -8 12 -17 11 -10 0 -13 -3 -6 -6z"/>
<path d="M1821 904 c0 -11 3 -14 6 -6 3 7 2 16 -1 19 -3 4 -6 -2 -5 -13z"/>
<path d="M1395 865 c-34 -31 -51 -41 -57 -32 -6 9 -10 9 -20 -1 -6 -6 -19 -12
-27 -12 -8 0 -23 -8 -34 -17 -19 -17 -19 -17 -13 7 l7 25 -20 -23 c-11 -13
-25 -21 -30 -18 -5 3 -15 -21 -24 -54 l-15 -59 47 26 c66 38 138 94 196 152
61 63 57 65 -10 6z"/>
<path d="M1618 903 c30 -6 28 -21 -5 -33 -51 -18 -55 -24 -59 -83 -3 -39 -1
-57 6 -52 5 3 10 15 10 25 0 24 45 38 70 22 9 -5 32 -8 51 -7 19 2 47 4 62 4
20 1 30 7 34 21 6 23 24 26 52 8 16 -9 17 -16 9 -37 l-9 -26 23 21 c13 12 31
24 41 27 19 7 23 27 5 27 -6 0 -20 7 -29 16 -15 13 -16 21 -8 36 7 13 7 18 1
14 -6 -3 -12 0 -15 6 -2 7 -9 -3 -15 -22 -6 -19 -11 -27 -11 -18 -1 16 -12 19
-141 31 -25 3 -20 5 20 7 48 2 51 3 25 10 -16 4 -55 8 -85 7 -30 0 -45 -2 -32
-4z"/>
<path d="M602 870 c0 -14 2 -19 5 -12 2 6 2 18 0 25 -3 6 -5 1 -5 -13z"/>
<path d="M910 870 c0 -5 5 -10 11 -10 5 0 7 5 4 10 -3 6 -8 10 -11 10 -2 0 -4
-4 -4 -10z"/>
<path d="M2180 857 c0 -38 82 -99 150 -112 30 -5 25 -1 -30 29 -36 20 -77 49
-92 66 -16 17 -28 24 -28 17z"/>
<path d="M1970 807 c0 -10 -5 -14 -15 -11 -11 5 -17 -3 -22 -27 -7 -33 -7 -33
-15 -9 -4 16 -6 5 -3 -30 3 -36 2 -46 -4 -30 -7 25 -8 24 -12 -7 -5 -27 -3
-31 12 -23 19 11 76 137 66 147 -4 3 -7 -1 -7 -10z"/>
<path d="M2113 727 c-12 -18 -32 -44 -43 -59 -27 -35 -17 -36 15 -2 23 25 24
25 52 9 l28 -17 -25 20 c-22 19 -23 22 -10 46 20 38 8 40 -17 3z"/>
<path d="M1705 700 c-16 -16 -24 -30 -19 -30 6 0 23 14 39 30 16 17 24 30 19
30 -6 0 -23 -13 -39 -30z"/>
<path d="M599 683 c-13 -16 -12 -17 4 -4 9 7 17 15 17 17 0 8 -8 3 -21 -13z"/>
<path d="M1861 638 c-11 -30 -11 -31 8 -14 11 10 17 24 14 32 -7 20 -10 18
-22 -18z"/>
<path d="M1860 585 c-7 -8 -20 -14 -29 -13 -8 2 -16 -1 -16 -7 0 -13 -47 -60
-59 -60 -5 0 -11 -6 -14 -14 -3 -8 0 -11 7 -7 6 4 11 2 11 -5 0 -8 4 -8 15 1
12 10 15 10 15 0 0 -7 10 0 22 16 12 16 25 31 28 34 3 3 16 20 29 38 22 32 15
46 -9 17z"/>
<path d="M811 536 c12 -13 21 -14 40 -7 23 9 23 10 2 10 -12 1 -30 4 -40 7
-16 6 -17 5 -2 -10z"/>
<path d="M1905 520 c-22 -16 -49 -29 -61 -30 -11 0 -30 -13 -42 -30 -13 -16
-29 -30 -38 -30 -8 0 -13 -4 -10 -9 10 -16 49 1 106 44 48 37 100 86 89 84 -2
0 -22 -14 -44 -29z"/>
<path d="M782 509 c-13 -5 -29 -6 -34 -2 -6 3 -8 1 -4 -5 3 -5 1 -12 -5 -14
-6 -2 -16 -41 -22 -86 l-11 -83 -30 7 c-17 3 -58 17 -91 30 -34 14 -72 23 -85
21 -14 -2 -38 2 -55 9 -18 7 -36 9 -46 3 -9 -4 -56 -14 -105 -20 -75 -10 -103
-10 -174 4 -47 8 -93 19 -103 22 -16 7 -17 -7 -17 -194 l0 -201 165 0 c162 0
166 1 205 26 44 29 58 27 40 -5 l-11 -21 330 0 329 0 6 44 c8 52 31 88 44 68
5 -7 16 -10 27 -6 16 7 17 3 12 -33 -4 -23 -10 -48 -13 -57 -6 -14 33 -16 402
-16 l408 0 -40 39 c-50 48 -74 61 -112 61 -16 0 -35 7 -42 15 -7 9 -19 14 -27
11 -7 -3 -51 2 -98 10 l-85 16 0 52 c0 62 -15 119 -36 136 -13 11 -14 8 -8
-27 l6 -39 -57 -22 c-31 -12 -65 -22 -74 -22 -10 0 -26 -9 -37 -21 -29 -32
-120 -69 -177 -72 -49 -3 -55 -1 -115 46 -72 56 -136 138 -158 199 -17 50 -17
48 1 48 8 0 15 -4 15 -9 0 -5 16 5 35 22 19 17 33 32 31 34 -2 2 -21 -3 -41
-11 -52 -22 -57 -21 -84 19 -26 38 -25 38 -59 24z m-274 -244 c-3 -3 -9 2 -12
12 -6 14 -5 15 5 6 7 -7 10 -15 7 -18z m-78 -99 c0 -2 -8 -10 -17 -17 -16 -13
-17 -12 -4 4 13 16 21 21 21 13z m-43 -87 c-8 -24 -20 -45 -27 -47 -7 -3 -11
-1 -9 4 41 95 62 121 36 43z m599 -10 c3 -6 4 -12 1 -15 -6 -7 -67 45 -67 58
0 10 55 -26 66 -43z m284 -24 c0 -8 -61 -37 -67 -32 -3 3 8 12 24 21 29 16 43
19 43 11z"/>
<path d="M1345 404 l0 -45 22 27 c23 30 22 38 -5 53 -15 8 -17 4 -17 -35z"/>
<path d="M1600 351 c11 -22 30 -29 30 -11 0 5 -9 14 -21 20 -19 11 -20 10 -9
-9z"/>
</g>
</svg>
